<svg width="26" height="35" viewBox="0 0 26 35" fill="none" xmlns="http://www.w3.org/2000/svg">
<path d="M16.0685 15.5657C19.0667 15.5657 21.4715 16.5747 23.2829 18.5927C25.0943 20.5792 26 23.3225 26 26.8225V35H18.036V27.9103C18.036 26.1445 17.5832 24.7729 16.6775 23.7954C15.7718 22.818 14.5538 22.3292 13.0234 22.3292C11.4931 22.3292 10.2751 22.818 9.36937 23.7954C8.46367 24.7729 8.01081 26.1445 8.01081 27.9103V35H0V0H8.01081V19.3968C8.82282 18.2301 9.93153 17.2999 11.3369 16.6062C12.7423 15.9126 14.3195 15.5657 16.0685 15.5657Z" fill="url(#paint0_linear_435_29)"/>
<defs>
<linearGradient id="paint0_linear_435_29" x1="0.16339" y1="37.3647" x2="21.8139" y2="12.5698" gradientUnits="userSpaceOnUse">
<stop stop-color="#FE205A"/>
<stop offset="1" stop-color="#F84676"/>
</linearGradient>
</defs>
</svg>
